<svg id="_16" data-name="16" xmlns="http://www.w3.org/2000/svg" viewBox="0 0 99.04 99.04"><defs><style>.cls-1,.cls-2{fill:#262626;}.cls-2{fill-rule:evenodd;}.cls-1 :hover,.cls-2 :hover{fill:#841b52;}</style></defs><title>fb</title><path class="cls-1" d="M85.15,42.89a49.52,49.52,0,1,1-35,14.5,49.33,49.33,0,0,1,35-14.5h0Zm32.3,17.25a45.71,45.71,0,1,0,13.35,32.27,45.62,45.62,0,0,0-13.35-32.27h0Z" transform="translate(-35.64 -42.89)"/><path class="cls-2" d="M88.94,82.29V78.23a2.13,2.13,0,0,1,2.22-2.41h5.68V67.15H89c-8.69,0-10.64,6.42-10.64,10.58v4.55h-5V92.41h5.1v25.28H88.55V92.41H96l0.33-4L97,82.29h-8Z" transform="translate(-35.64 -42.89)"/></svg>