<?xml version="1.0" encoding="utf-8"?>
<!-- Generator: Adobe Illustrator 19.2.1, SVG Export Plug-In . SVG Version: 6.00 Build 0)  -->
<svg version="1.1" id="_16" xmlns="http://www.w3.org/2000/svg" xmlns:xlink="http://www.w3.org/1999/xlink" x="0px" y="0px"
	 viewBox="0 0 100 100" style="enable-background:new 0 0 100 100;" xml:space="preserve">
<style type="text/css">
	.st0{fill:#CBE0E4;}
</style>
<title>insta</title>
<g>
	<path class="st0" d="M50,0C22.4,0,0,22.4,0,50s22.4,50,50,50s50-22.4,50-50S77.6,0,50,0z M74.8,63.1c0,6.4-5.2,11.7-11.7,11.7H36.9
		c-6.4,0-11.7-5.2-11.7-11.7V36.9c0-6.4,5.2-11.7,11.7-11.7h26.2c6.5,0,11.7,5.3,11.7,11.7V63.1z"/>
	<path class="st0" d="M50,37.3c-7,0-12.7,5.7-12.7,12.7C37.4,57,43,62.7,50,62.7S62.7,57,62.7,50S57,37.3,50,37.3z"/>
	<path class="st0" d="M63.1,28.1H36.9c-4.8,0-8.8,4-8.8,8.8v26.2c0,4.9,3.9,8.8,8.8,8.8h26.2c4.9,0,8.8-3.9,8.8-8.8V36.9
		C71.9,32,68,28.1,63.1,28.1z M50,66c-8.8,0-16-7.2-16-16s7.2-16,16-16s16,7.2,16,16C66,58.9,58.8,66,50,66z M65.7,37
		c-1.4,0-2.6-1.2-2.6-2.6c0-1.4,1.2-2.6,2.6-2.6c1.5,0,2.6,1.2,2.6,2.6C68.3,35.8,67.1,37,65.7,37z"/>
</g>
</svg>
