<svg id="_16" data-name="16" xmlns="http://www.w3.org/2000/svg" viewBox="0 0 99.04 99.04"><defs><style>.cls-1,.cls-2{fill:#262626;}.cls-2{fill-rule:evenodd;}</style></defs><title>insta</title><path class="cls-1" d="M211.09,42.89a49.52,49.52,0,1,1-35,14.5,49.28,49.28,0,0,1,35-14.5h0Zm32.3,17.25a45.71,45.71,0,1,0,13.35,32.27,45.62,45.62,0,0,0-13.35-32.27h0Z" transform="translate(-161.57 -42.89)"/><path class="cls-2" d="M198.42,92.41a12.68,12.68,0,1,1,12.67,12.69,12.7,12.7,0,0,1-12.67-12.69h0Zm25.77-24.81H198a11.77,11.77,0,0,0-11.74,11.74v26.18A11.78,11.78,0,0,0,198,117.25h26.18a11.77,11.77,0,0,0,11.73-11.73V79.33a11.75,11.75,0,0,0-11.73-11.74h0ZM198,70.53h26.18a8.81,8.81,0,0,1,8.8,8.8v26.18a8.81,8.81,0,0,1-8.8,8.8H198a8.81,8.81,0,0,1-8.8-8.8V79.33a8.81,8.81,0,0,1,8.8-8.8h0Zm28.79,3.7a2.58,2.58,0,1,0,2.58,2.58,2.57,2.57,0,0,0-2.58-2.58h0Zm0.3,18.18a16,16,0,1,0-16,16,16,16,0,0,0,16-16h0Z" transform="translate(-161.57 -42.89)"/></svg>