<svg id="Layer_1" data-name="Layer 1" xmlns="http://www.w3.org/2000/svg" viewBox="0 0 62.14 103.39"><defs><style>.cls-1{fill:#272525;}</style></defs><title>location</title><g id="_Group_" data-name="&lt;Group&gt;"><path id="_Compound_Path_" data-name="&lt;Compound Path&gt;" class="cls-1" d="M456,554.5a31.07,31.07,0,1,0-60.38,0A46.46,46.46,0,0,0,399,566.58c3.05,6.41,15.9,27.58,21.8,37.23-8,1-11.68,4.44-11.68,7.68,0,3.85,5.22,8,16.67,8s16.67-4.14,16.67-8c0-3.23-3.7-6.66-11.68-7.68,5.9-9.64,18.75-30.81,21.8-37.23A46.47,46.47,0,0,0,456,554.5Zm-18.32,57c-0.32.91-4.34,3.19-11.87,3.19s-11.64-2.33-11.88-3.16c0.22-.8,3.49-2.75,9.68-3.14l0.16,0.25a2.4,2.4,0,0,0,4.08,0l0.16-.25C434.09,608.75,437.36,610.67,437.66,611.48Zm-34.33-47a42.76,42.76,0,0,1-3-10.89c0-.06,0-0.12,0-0.19a26.27,26.27,0,1,1,51,0c0,0.06,0,.12,0,0.19a42.79,42.79,0,0,1-3,10.89c-3.08,6.47-17.15,29.58-22.47,38.26C420.47,594.1,406.41,571,403.32,564.52Z" transform="translate(-394.72 -516.08)"/><path id="_Compound_Path_2" data-name="&lt;Compound Path&gt;" class="cls-1" d="M425.79,529.58a16.67,16.67,0,1,0,16.67,16.67A16.69,16.69,0,0,0,425.79,529.58Zm-11.87,16.67a11.87,11.87,0,1,1,11.87,11.87A11.89,11.89,0,0,1,413.91,546.25Z" transform="translate(-394.72 -516.08)"/></g></svg>