<svg id="Layer_1" data-name="Layer 1" xmlns="http://www.w3.org/2000/svg" viewBox="0 0 289.87 111.92"><defs><style>.cls-1{fill:#fff;}</style></defs><title>logo-w</title><path class="cls-1" d="M103.19,34.33V135.42H204.28V34.33L172.19,23.5Zm95.94,95.94h-90.8V39.48h90.8v90.8Z" transform="translate(-3.71 -23.5)"/><path class="cls-1" d="M177.4,73.57c0,13.61-8.4,23.49-23,23.49H113.48v22.61h-5.14V50.07h46C168.7,50.07,177.4,59.85,177.4,73.57Zm-5.33,0c0-10.87-6.92-17.79-17-17.79h-41.6V91.35h41.6C165.44,91.35,172.07,84.33,172.07,73.57Z" transform="translate(-3.71 -23.5)"/><path class="cls-1" d="M199.15,110.62V133.7H194V116.33H140.47v16.4h-5.13v-22.1h5.23c4.74-4.83,8.3-15.15,10.18-30.74,1.58-14.05,1.58-29.31,1.58-38.31V37H192v73.66h7.11Zm-51.86,0H186.9V45.19H157.47C157.37,63.74,156.58,95.36,147.29,110.62Z" transform="translate(-3.71 -23.5)"/><path class="cls-1" d="M57.06,115H98.29v3.35H53.81Zm0-31.75H94.75v3.25H57.06V83.2ZM53.81,51.35h43.9V54.7H57.06Z" transform="translate(-3.71 -23.5)"/><path class="cls-1" d="M51.29,51.35V118.5H47.93V86.36c-3.93,5-13.43,8.92-22.07,8.92C13,95.28,3.71,88.38,3.71,70.73V51.35H7.06V70.73C7.06,84.93,13.68,92,25.86,92,37.09,92,45,86.36,47.93,82V51.35h3.36Z" transform="translate(-3.71 -23.5)"/><path class="cls-1" d="M222.85,51.35h3.6l25.83,67h-3.54l-8.22-21.23H209.33l1.24-3.26h28.7Z" transform="translate(-3.71 -23.5)"/><polygon class="cls-1" points="261.96 55.67 287.18 27.75 282.68 27.75 245.55 68.81 245.55 27.75 242.19 27.75 242.19 65.09 245.55 73.8 259.66 58.16 285.75 94.9 289.87 94.9 261.96 55.67"/></svg>