<svg id="Layer_1" data-name="Layer 1" xmlns="http://www.w3.org/2000/svg" viewBox="0 0 199.97 101.27"><defs><style>.cls-1{font-size:12.57px;font-family:MADE Evolve Sans;}.cls-1,.cls-3{fill:#fff;}.cls-2{letter-spacing:1.59px;}</style></defs><title>logo-w-t</title><text class="cls-1" transform="translate(66.78 90.24) scale(0.63 0.7)">Т<tspan class="cls-2" x="7.31" y="0">А</tspan><tspan x="16.71" y="0">Н</tspan><tspan x="26.98" y="0">Ц</tspan><tspan x="37.34" y="0">Е</tspan><tspan x="46.32" y="0">В</tspan><tspan class="cls-2" x="55.56" y="0">А</tspan><tspan x="65.37" y="0">Л</tspan><tspan x="75.28" y="0">Ь</tspan><tspan x="84.45" y="0">НЫ</tspan><tspan x="106.38" y="0">Й</tspan><tspan class="cls-2" x="78.78" y="12.93">К</tspan><tspan class="cls-2" x="88.52" y="12.93">Л</tspan><tspan class="cls-2" x="98.47" y="12.93">У</tspan><tspan x="107.28" y="12.93">Б</tspan></text><path class="cls-3" d="M68.81,84.57v69.74h69.74V84.57L116.41,77.1ZM135,150.76H72.36V88.12H135v62.64Z" transform="translate(-0.18 -77.1)"/><path class="cls-3" d="M120,111.64c0,9.39-5.79,16.2-15.88,16.2H75.91v15.6H72.36v-48h31.77C114,95.43,120,102.17,120,111.64Zm-3.68,0c0-7.5-4.77-12.27-11.72-12.27H75.91v24.54h28.7C111.76,123.91,116.32,119.06,116.32,111.64Z" transform="translate(-0.18 -77.1)"/><path class="cls-3" d="M135,137.2v15.93h-3.54v-12H94.53v11.31H91V137.2H94.6c3.27-3.33,5.73-10.45,7-21.21a244.69,244.69,0,0,0,1.09-26.43V86.39h27.4V137.2H135Zm-35.78,0h27.33V92.06H106.25C106.19,104.86,105.64,126.67,99.23,137.2Z" transform="translate(-0.18 -77.1)"/><path class="cls-3" d="M37,140.19H65.43v2.31H34.75Zm0-21.91H63v2.24H37v-2.24Zm-2.24-22H65v2.31H37Z" transform="translate(-0.18 -77.1)"/><path class="cls-3" d="M151.35,96.31h2.49l17.82,46.19h-2.44l-5.67-14.65H142l0.86-2.25h19.8Z" transform="translate(-0.18 -77.1)"/><path class="cls-3" d="M33,96.31v46.32H30.69V120.47c-2.71,3.44-9.26,6.15-15.22,6.15-8.87,0-15.28-4.76-15.28-16.94V96.31H2.5v13.37c0,9.8,4.57,14.69,13,14.69,7.74,0,13.17-3.9,15.22-6.88V96.31H33Z" transform="translate(-0.18 -77.1)"/><polygon class="cls-3" points="180.71 38.4 198.12 19.14 195.01 19.14 169.4 47.47 169.4 19.14 167.08 19.14 167.08 44.9 169.4 50.91 179.12 40.12 197.12 65.47 199.97 65.47 180.71 38.4"/></svg>