<?xml version="1.0" encoding="utf-8"?>
<!-- Generator: Adobe Illustrator 19.2.1, SVG Export Plug-In . SVG Version: 6.00 Build 0)  -->
<svg version="1.1" id="Layer_1" xmlns="http://www.w3.org/2000/svg" xmlns:xlink="http://www.w3.org/1999/xlink" x="0px" y="0px"
	 viewBox="0 0 200 101.3" style="enable-background:new 0 0 200 101.3;" xml:space="preserve">
<style type="text/css">
	.st0{enable-background:new    ;}
	.st1{fill:#FFFFFF;}
</style>
<title>logo-w-t</title>
<g class="st0">
	<path class="st1" d="M16.7,96.8h-1.9v-8h-2v-1.6h5.8v1.6h-2V96.8z"/>
</g>
<g class="st0">
	<path class="st1" d="M26.5,96.8l-0.6-2.4h-2.7l-0.6,2.4h-1.9l2.5-9.6h2.6l2.6,9.6H26.5z M25.6,92.7L25,90.5c0-0.1-0.1-0.5-0.2-1
		c-0.1-0.5-0.2-0.9-0.2-1.1c-0.1,0.4-0.1,0.8-0.2,1.2c-0.1,0.5-0.3,1.5-0.7,3.1H25.6z"/>
</g>
<g class="st0">
	<path class="st1" d="M38.5,96.8h-1.9v-4.2H34v4.2h-1.9v-9.6H34V91h2.5v-3.8h1.9V96.8z"/>
</g>
<g class="st0">
	<path class="st1" d="M49.9,95.3H51v4.2h-1.9v-2.7h-5.7v-9.6h1.9v8H48v-8h1.9V95.3z"/>
</g>
<g class="st0">
	<path class="st1" d="M59.7,96.8h-4.6v-9.6h4.6v1.5H57V91h2.5v1.5H57v2.7h2.7V96.8z"/>
</g>
<g class="st0">
	<path class="st1" d="M65.1,87.2h2.6c1.1,0,1.8,0.2,2.3,0.6c0.5,0.4,0.7,1,0.7,1.8c0,0.6-0.1,1-0.4,1.4c-0.3,0.4-0.6,0.6-1.1,0.7
		v0.1c0.6,0.1,1,0.4,1.3,0.8c0.3,0.4,0.4,0.9,0.4,1.5c0,0.9-0.2,1.6-0.7,2c-0.5,0.5-1.2,0.7-2,0.7h-3.1V87.2z M66.9,91h0.9
		c0.4,0,0.7-0.1,0.9-0.3s0.2-0.5,0.2-0.9c0-0.4-0.1-0.7-0.3-0.9c-0.2-0.2-0.5-0.3-0.9-0.3h-0.8V91z M66.9,92.5v2.7h1
		c0.4,0,0.7-0.1,0.9-0.3c0.2-0.2,0.3-0.6,0.3-1.1c0-0.9-0.4-1.3-1.2-1.3H66.9z"/>
</g>
<g class="st0">
	<path class="st1" d="M80.2,96.8l-0.6-2.4h-2.7l-0.6,2.4h-1.9l2.5-9.6h2.6l2.6,9.6H80.2z M79.3,92.7l-0.5-2.2c0-0.1-0.1-0.5-0.2-1
		c-0.1-0.5-0.2-0.9-0.2-1.1c-0.1,0.4-0.1,0.8-0.2,1.2c-0.1,0.5-0.3,1.5-0.7,3.1H79.3z"/>
</g>
<g class="st0">
	<path class="st1" d="M92.6,96.8h-1.9v-8h-1.5c-0.2,2.2-0.4,4-0.6,5.5c-0.1,0.9-0.4,1.6-0.8,2s-0.9,0.6-1.5,0.6
		c-0.4,0-0.7,0-0.9-0.1v-1.5c0.1,0.1,0.3,0.1,0.5,0.1c0.3,0,0.5-0.2,0.6-0.6c0.1-0.4,0.3-1.3,0.5-2.6s0.4-3,0.6-5h5.1V96.8z"/>
</g>
<g class="st0">
	<path class="st1" d="M102.9,93.7c0,1-0.3,1.7-0.8,2.3c-0.5,0.5-1.3,0.8-2.3,0.8h-2.4v-9.6h1.9v3.7h0.5
		C101.8,90.9,102.9,91.8,102.9,93.7z M99.2,95.2h0.5c0.9,0,1.3-0.5,1.3-1.4c0-0.5-0.1-0.8-0.3-1c-0.2-0.2-0.6-0.3-1.1-0.3h-0.4V95.2
		z"/>
</g>
<g class="st0">
	<path class="st1" d="M113.9,96.8H112v-4.2h-2.5v4.2h-1.9v-9.6h1.9V91h2.5v-3.8h1.9V96.8z"/>
	<path class="st1" d="M119.2,96.8v-9.6h1.9v3.7h0.5c2.1,0,3.2,0.9,3.2,2.8c0,1-0.3,1.7-0.8,2.3c-0.5,0.5-1.3,0.8-2.3,0.8H119.2z
		 M121.2,95.2h0.5c0.9,0,1.3-0.5,1.3-1.4c0-0.5-0.1-0.8-0.3-1c-0.2-0.2-0.6-0.3-1.1-0.3h-0.4V95.2z M128.1,96.8h-1.9v-9.6h1.9V96.8z
		"/>
</g>
<g class="st0">
	<path class="st1" d="M131.9,87.2h1.8v5.3c0,0.5,0,1.1-0.1,1.6h0.1l3.1-6.9h2.3v9.6h-1.8v-5.3c0-0.6,0.1-1.2,0.2-1.7h-0.1l-3.2,7
		h-2.4V87.2z M138.1,84.3c-0.1,0.7-0.4,1.3-0.8,1.6c-0.4,0.3-1,0.5-1.9,0.5c-0.8,0-1.4-0.2-1.8-0.5s-0.6-0.9-0.7-1.6h1.6
		c0.1,0.4,0.2,0.7,0.3,0.9c0.1,0.2,0.4,0.2,0.7,0.2c0.3,0,0.5-0.1,0.7-0.3c0.2-0.2,0.3-0.5,0.3-0.9H138.1z"/>
</g>
<g class="st0">
	<path class="st1" d="M156.5,96.8h-2.1l-2.6-4.9v4.9h-1.9v-9.6h1.9v4.6l2.7-4.6h2l-2.8,4.6L156.5,96.8z"/>
</g>
<g class="st0">
	<path class="st1" d="M167,96.8h-1.9v-8h-1.5c-0.2,2.2-0.4,4-0.6,5.5c-0.1,0.9-0.4,1.6-0.8,2s-0.9,0.6-1.5,0.6c-0.4,0-0.7,0-0.9-0.1
		v-1.5c0.1,0.1,0.3,0.1,0.5,0.1c0.3,0,0.5-0.2,0.6-0.6c0.1-0.4,0.3-1.3,0.5-2.6s0.4-3,0.6-5h5.1V96.8z"/>
</g>
<g class="st0">
	<path class="st1" d="M172.3,96.9c-0.5,0-0.9-0.1-1.2-0.2v-1.6c0.3,0.1,0.7,0.2,1.1,0.2c0.6,0,1-0.5,1.3-1.5l-2.6-6.7h2l1.3,3.7
		c0.1,0.3,0.2,0.6,0.2,0.9h0.1l0.1-0.4l0.1-0.4l1.1-3.7h1.9l-2.3,6.8c-0.4,1.1-0.8,1.8-1.3,2.3C173.6,96.7,173,96.9,172.3,96.9z"/>
</g>
<g class="st0">
	<path class="st1" d="M187.2,93.7c0,1-0.3,1.7-0.8,2.3c-0.5,0.5-1.3,0.8-2.3,0.8h-2.6v-9.6h4.9v1.6h-3v2.2h0.6c1,0,1.8,0.2,2.4,0.7
		S187.2,92.8,187.2,93.7z M183.4,95.2h0.6c0.8,0,1.2-0.5,1.2-1.4c0-0.5-0.1-0.8-0.3-1c-0.2-0.2-0.6-0.3-1.1-0.3h-0.5V95.2z"/>
</g>
<g>
	<path class="st1" d="M68.6,7.5v69.7h69.7V7.5L116.2,0L68.6,7.5z M134.8,73.7H72.2V11h62.6V73.7L134.8,73.7z"/>
	<path class="st1" d="M119.8,34.5c0,9.4-5.8,16.2-15.9,16.2H75.7v15.6h-3.6v-48h31.8C113.8,18.3,119.8,25.1,119.8,34.5z M116.1,34.5
		c0-7.5-4.8-12.3-11.7-12.3H75.7v24.5h28.7C111.6,46.8,116.1,42,116.1,34.5z"/>
	<path class="st1" d="M134.8,60.1V76h-3.5V64H94.3v11.3h-3.5V60.1h3.6c3.3-3.3,5.7-10.4,7-21.2c0.8-8.8,1.2-17.6,1.1-26.4V9.3h27.4
		v50.8H134.8z M99,60.1h27.3V15h-20.3C106,27.8,105.5,49.6,99,60.1L99,60.1z"/>
	<path class="st1" d="M36.8,63.1h28.4v2.3H34.6L36.8,63.1z M36.8,41.2h26v2.2h-26V41.2z M34.6,19.2h30.2v2.3h-28L34.6,19.2z"/>
	<path class="st1" d="M151.2,19.2h2.5l17.8,46.2H169l-5.7-14.7h-21.6l0.9-2.3h19.8L151.2,19.2z"/>
	<path class="st1" d="M32.8,19.2v46.3h-2.3V43.4c-2.7,3.4-9.3,6.2-15.2,6.2C6.4,49.5,0,44.8,0,32.6V19.2h2.3v13.4
		c0,9.8,4.6,14.7,13,14.7c7.7,0,13.2-3.9,15.2-6.9V19.2H32.8z"/>
	<polygon class="st1" points="180.7,38.4 198.1,19.1 195,19.1 169.4,47.5 169.4,19.1 167.1,19.1 167.1,44.9 169.4,50.9 179.1,40.1 
		197.1,65.5 200,65.5 	"/>
</g>
</svg>
