<svg id="Layer_1" data-name="Layer 1" xmlns="http://www.w3.org/2000/svg" viewBox="0 0 148.98 164.95"><defs><style>.cls-1{fill:#fff;}</style></defs><title>logo-footer-w</title><path class="cls-1" d="M103,64v69.15h-5V102.22c-4.56,4.52-12,7.87-20.56,7.87C66.8,110.08,55,103.51,55,84.75V64h5V84.65c0,13.9,7.47,19.83,17.36,19.83,10.47,0,16.88-4.64,20.56-9.05V64h5Z" transform="translate(-50.27 -42.67)"/><path class="cls-1" d="M148.09,127.53v5.6H103V64h45.1v5.6H108V95.75h40.06v5.6H108v26.17h40.06Z" transform="translate(-50.27 -42.67)"/><path class="cls-1" d="M194.55,85.46c0,13.36-8.24,21.5-22.6,21.5H153.13v26.17h-5V64h23.86C186,64,194.55,72,194.55,85.46Zm-5.24,0c0-10.67-6.79-15.89-16.68-15.89H153.13v31.77h19.49C182.81,101.35,189.31,96,189.31,85.46Z" transform="translate(-50.27 -42.67)"/><path class="cls-1" d="M142.65,182.47H112.72L97.88,202.28h-7l51.79-69.15h5.43v69.15h-5.43V182.47Zm0-5.72V142.5L117,176.76h25.65Z" transform="translate(-50.27 -42.67)"/><polygon class="cls-1" points="146.76 89.17 146.76 81.47 102.86 131.28 102.86 90.45 97.82 90.45 97.82 159.61 102.86 159.61 102.86 138.99 116.73 123.25 141.95 159.61 148.16 159.61 120.26 119.24 146.76 89.17"/><path class="cls-1" d="M60,204.46V196h44.91v8.46h5V190.39h-7V133.13H71.65v2A243,243,0,0,1,70.1,166.5c-1.45,12.64-5.34,19.15-10,23.89H55v14.07h5ZM76.7,138.73H97.94v51.66H65.17C71.57,185.31,76.7,165.17,76.7,138.73Z" transform="translate(-50.27 -42.67)"/><path class="cls-1" d="M50.27,58.64v149h149v-149l-47.3-16ZM193.91,202.28H55.61V64H171.32s11.08,0.35,16.94,6.21,5.65,10.47,5.65,10.47V202.28Z" transform="translate(-50.27 -42.67)"/><path class="cls-1" d="M59,46.33l-3.44.53,1.73,11.25-1.59.24L54,47.1l-3.44.53L50.3,45.86l8.48-1.3Z" transform="translate(-50.27 -42.67)"/><path class="cls-1" d="M66,50.62l-1.18,2.12,0.63,4.11-1.61.25-2-13,1.61-.25L64.44,50l3.88-6.92,2.09-.32L66.9,49.08l5.86,6.65-2,.3Z" transform="translate(-50.27 -42.67)"/></svg>