<svg id="Layer_1" data-name="Layer 1" xmlns="http://www.w3.org/2000/svg" viewBox="0 0 249.58 126.39"><defs><style>.cls-1{fill:#fbba00;}.cls-2{fill:#97361f;}.cls-3{fill:#008396;}.cls-4{fill:#608d3c;}.cls-5{fill:#851b52;}.cls-6{font-size:15.69px;font-family:MADE Evolve Sans;}.cls-6,.cls-8{fill:#1c1c1b;}.cls-7{letter-spacing:1.59px;}</style></defs><title>logo</title><rect class="cls-1" x="89.08" y="12.68" width="40.76" height="11.52"/><polygon class="cls-2" points="116.74 62.19 89.08 62.19 89.08 95.12 116.74 95.12 116.74 77.57 122 76.45 126.94 62.19 116.74 62.19"/><polygon class="cls-3" points="116.3 95.12 166.65 95.12 166.65 78.66 160.15 78.66 160.57 16.14 129.94 16.14 128.47 57.62 120.48 78.66 116.3 78.66 116.3 95.12"/><rect class="cls-4" x="161.95" y="12.68" width="7.98" height="64.89"/><polygon class="cls-5" points="139.18 61.14 93.52 61.14 93.52 27.65 139.18 27.65 146.86 37.52 146.3 52.33 139.18 61.14"/><text class="cls-6" transform="translate(84.42 112.63) scale(0.63 0.7)">Т<tspan class="cls-7" x="8.93" y="0">А</tspan><tspan class="cls-7" x="20.52" y="0">Н</tspan><tspan class="cls-7" x="33.17" y="0">Ц</tspan><tspan x="45.96" y="0">Е</tspan><tspan class="cls-7" x="57.01" y="0">В</tspan><tspan class="cls-7" x="68.38" y="0">А</tspan><tspan class="cls-7" x="80.49" y="0">Л</tspan><tspan x="92.71" y="0">Ь</tspan><tspan class="cls-7" x="104" y="0">НЫ</tspan><tspan x="131.05" y="0">Й</tspan><tspan class="cls-7" x="97.03" y="16.13">К</tspan><tspan class="cls-7" x="109.06" y="16.13">Л</tspan><tspan class="cls-7" x="121.33" y="16.13">У</tspan><tspan x="132.18" y="16.13">Б</tspan></text><path class="cls-8" d="M386.29,513v87h87V513l-27.63-9.33Zm82.61,82.61H390.72V517.41H468.9v78.17Z" transform="translate(-300.64 -503.65)"/><path class="cls-8" d="M450.19,546.76c0,11.72-7.23,20.22-19.82,20.22H395.15v19.47h-4.42V526.54h39.65C442.7,526.54,450.19,534.95,450.19,546.76Zm-4.59,0c0-9.36-6-15.31-14.63-15.31H395.15v30.63H431C439.89,562.07,445.59,556,445.59,546.76Z" transform="translate(-300.64 -503.65)"/><path class="cls-8" d="M468.92,578.66v17.74H464.5V583.58h-46.1v13.7H414V578.66h4.51c4.08-4.16,7.15-13,8.76-26.47,1.36-12.1,1.36-25.24,1.36-33v-4.1h34.19v63.55h6.12Zm-44.65,0h34.11V522.33H433C432.94,538.3,432.26,565.52,424.26,578.66Z" transform="translate(-300.64 -503.65)"/><path class="cls-8" d="M346.58,582.4h35.5v2.88h-38.3Zm0-27.34H379v2.8H346.58v-2.8Zm-2.8-27.43h37.8v2.88h-35Z" transform="translate(-300.64 -503.65)"/><path class="cls-8" d="M489.32,527.63h3.1l22.24,57.65h-3L504.52,567H477.68l1.07-2.8h24.71Z" transform="translate(-300.64 -503.65)"/><path class="cls-8" d="M341.6,527.63v57.81h-2.89V557.78c-3.39,4.29-11.56,7.68-19,7.68-11.07,0-19.08-5.94-19.08-21.14V527.63h2.89v16.68c0,12.23,5.7,18.33,16.19,18.33,9.66,0,16.44-4.87,19-8.59V527.63h2.89Z" transform="translate(-300.64 -503.65)"/><polygon class="cls-8" points="225.54 47.93 247.26 23.89 243.38 23.89 211.42 59.24 211.42 23.89 208.53 23.89 208.53 56.04 211.42 63.54 223.56 50.08 246.03 81.71 249.58 81.71 225.54 47.93"/></svg>