<?xml version="1.0" encoding="utf-8"?>
<!-- Generator: Adobe Illustrator 19.2.1, SVG Export Plug-In . SVG Version: 6.00 Build 0)  -->
<svg version="1.1" id="Layer_1" xmlns="http://www.w3.org/2000/svg" xmlns:xlink="http://www.w3.org/1999/xlink" x="0px" y="0px"
	 viewBox="0 0 149 164.9" style="enable-background:new 0 0 149 164.9;" xml:space="preserve">
<style type="text/css">
	.st0{fill:#CBE0E4;}
</style>
<title>logo-footer-w</title>
<path class="st0" d="M52.7,21.3v69.1h-5V59.6c-4.6,4.5-12,7.9-20.6,7.9c-10.6,0-22.4-6.6-22.4-25.3V21.3h5V42
	c0,13.9,7.5,19.8,17.4,19.8c10.5,0,16.9-4.6,20.6-9.1V21.3H52.7L52.7,21.3z"/>
<path class="st0" d="M97.8,84.9v5.6H52.7V21.3h45.1v5.6H57.7v26.2h40.1v5.6H57.7v26.2L97.8,84.9L97.8,84.9z"/>
<path class="st0" d="M144.3,42.8c0,13.4-8.2,21.5-22.6,21.5h-18.8v26.2h-5V21.3h23.9C135.7,21.3,144.3,29.3,144.3,42.8z M139,42.8
	c0-10.7-6.8-15.9-16.7-15.9h-19.5v31.8h19.5C132.5,58.7,139,53.3,139,42.8z"/>
<path class="st0" d="M92.4,139.8H62.5l-14.8,19.8h-7l51.8-69.1h5.4v69.1h-5.4L92.4,139.8L92.4,139.8z M92.4,134.1V99.8l-25.6,34.3
	L92.4,134.1L92.4,134.1z"/>
<polygon class="st0" points="146.8,89.2 146.8,81.5 102.9,131.3 102.9,90.4 97.8,90.4 97.8,159.6 102.9,159.6 102.9,139 
	116.7,123.3 141.9,159.6 148.2,159.6 120.3,119.2 "/>
<path class="st0" d="M9.7,161.8v-8.5h44.9v8.5h5v-14.1h-7V90.5H21.4v2c0.2,10.5-0.4,21-1.6,31.4c-1.4,12.6-5.3,19.1-10,23.9H4.7
	v14.1L9.7,161.8L9.7,161.8z M26.4,96.1h21.2v51.7H14.9C21.3,142.6,26.4,122.5,26.4,96.1z"/>
<path class="st0" d="M0,16v149h149V16L101.7,0L0,16z M143.6,159.6H5.3V21.3h115.7c0,0,11.1,0.3,16.9,6.2s5.6,10.5,5.6,10.5V159.6z"
	/>
<path class="st0" d="M8.7,3.7L5.3,4.2L7,15.4l-1.6,0.2L3.7,4.4L0.3,5L0,3.2l8.5-1.3L8.7,3.7z"/>
<path class="st0" d="M15.7,8l-1.2,2.1l0.6,4.1l-1.6,0.3l-2-13l1.6-0.3l1,6.2L18,0.4l2.1-0.3l-3.5,6.3l5.9,6.7l-2,0.3L15.7,8z"/>
</svg>
