<svg id="Layer_1" data-name="Layer 1" xmlns="http://www.w3.org/2000/svg" viewBox="0 0 89.65 90.46"><defs><style>.cls-1{fill:#363636;}</style></defs><title>phone</title><g id="_Group_" data-name="&lt;Group&gt;"><path id="_Compound_Path_" data-name="&lt;Compound Path&gt;" class="cls-1" d="M386,539.34a13.64,13.64,0,0,0-1,1.3c-2.93,2.59-5.25,8.3-3.89,15.34a70.19,70.19,0,0,0,62.39,56.43c0.67,0.06,1.33.09,2,.09A18.34,18.34,0,0,0,455,610a14,14,0,0,0,3.41-2.75l2.65-2.93a14,14,0,0,0-1-19.76l-4.48-4a14,14,0,0,0-19.76,1l-2.65,2.93a13.9,13.9,0,0,0-2.47,3.84,49.53,49.53,0,0,1-24.61-22.53,14,14,0,0,0,5.11-3.58l2.65-2.93a14,14,0,0,0-1-19.76l-4.47-4a14,14,0,0,0-19.76,1Zm5.32-.52a10.4,10.4,0,0,1,14.68-.73l4.47,4a10.4,10.4,0,0,1,.74,14.68l-2.65,2.93h0a10.38,10.38,0,0,1-4.7,3L403,563a1.8,1.8,0,0,0-1.09,2.52l0.38,0.75A53.14,53.14,0,0,0,430.41,592l0.7,0.27a1.8,1.8,0,0,0,2.36-1.1l0.24-.7a10.34,10.34,0,0,1,2.14-3.66l2.65-2.93a10.39,10.39,0,0,1,14.68-.74l4.48,4a10.41,10.41,0,0,1,.74,14.68l-2.65,2.93a10.57,10.57,0,0,1-2.58,2.07,15.37,15.37,0,0,1-9.38,1.93A66.58,66.58,0,0,1,384.6,555.3c-1.17-6.06,1-10.51,2.8-12l0.16-.16,0.12-.14,0.15-.18a10.15,10.15,0,0,1,.83-1Z" transform="translate(-380.66 -522.04)"/><path id="_Compound_Path_2" data-name="&lt;Compound Path&gt;" class="cls-1" d="M470.32,564.75A42.76,42.76,0,0,0,427.61,522a3.74,3.74,0,1,0,0,7.48,35.27,35.27,0,0,1,35.23,35.23A3.74,3.74,0,0,0,470.32,564.75Zm-3.74,1.94a1.94,1.94,0,0,1-1.94-1.94,37.07,37.07,0,0,0-37-37,1.94,1.94,0,1,1,0-3.89,41,41,0,0,1,40.91,40.91A1.94,1.94,0,0,1,466.58,566.69Z" transform="translate(-380.66 -522.04)"/><path id="_Compound_Path_3" data-name="&lt;Compound Path&gt;" class="cls-1" d="M427.15,535.95a3.74,3.74,0,0,0,0,7.48,21.8,21.8,0,0,1,21.78,21.78,3.74,3.74,0,0,0,7.48,0A29.29,29.29,0,0,0,427.15,535.95Zm25.52,31.2a1.94,1.94,0,0,1-1.94-1.94,23.6,23.6,0,0,0-23.58-23.58,1.94,1.94,0,0,1,0-3.88,27.49,27.49,0,0,1,27.46,27.46A1.94,1.94,0,0,1,452.67,567.15Z" transform="translate(-380.66 -522.04)"/></g></svg>