<?xml version="1.0" encoding="utf-8"?>
<!-- Generator: Adobe Illustrator 19.2.1, SVG Export Plug-In . SVG Version: 6.00 Build 0)  -->
<svg version="1.1" id="_16" xmlns="http://www.w3.org/2000/svg" xmlns:xlink="http://www.w3.org/1999/xlink" x="0px" y="0px"
	 viewBox="0 0 100 100" style="enable-background:new 0 0 100 100;" xml:space="preserve">
<style type="text/css">
	.st0{fill:#CBE0E4;}
</style>
<title>vk</title>
<path class="st0" d="M50,0C22.4,0,0,22.4,0,50s22.4,50,50,50s50-22.4,50-50S77.6,0,50,0z M77.9,64.4c-0.3,1.9-3.5,1.5-6.3,1.6
	c-2.1,0.2-4.3,0-6.3-0.5c-1.9-0.7-6.9-7.4-8.2-7.1c-2.9,0.6-1.9,6.7-2.7,7.1c-1.3,0.6-5.3,0.5-6.9,0.3c-8.2-1.3-12.9-6.8-17.4-13.9
	c-5.5-8.7-8.9-15.1-7.4-15.9s5.8-0.6,10.1-0.5c1.3,0.1,5,9.4,6,11c3.9,6.3,5.1,1.6,5.2,1.1c1.1-11.2-1.7-10.7-3.3-10.9
	c1.2-3.6,9.6-3,9.6-3c1.3,0.3,2.6,0.8,3.8,1.4c0.4,0.3,0.8,1.2,0.8,4.1c-0.2,4.4-0.7,10.4,1.3,10.4c1.4,0,3.8-3.5,5.7-7.1
	c1.6-3.2,2.9-6.3,3.5-6.5c2-0.3,4-0.4,6-0.3c2.6,0,5.3,0,6,0.5c1.5,1.2-1,5-3,8c-1.9,2.6-5.4,6-5.2,7.9
	C69.4,54.7,78.6,60.2,77.9,64.4z"/>
</svg>
