<svg id="_16" data-name="16" xmlns="http://www.w3.org/2000/svg" viewBox="0 0 99.04 99.04"><defs><style>.cls-1,.cls-2{fill:#262626;}.cls-2{fill-rule:evenodd;}</style></defs><title>vk</title><path class="cls-1" d="M588.91,412a49.52,49.52,0,1,1-35,14.5,49.34,49.34,0,0,1,35-14.5h0Zm32.27,17.25a45.64,45.64,0,1,0,13.38,32.27,45.51,45.51,0,0,0-13.38-32.27h0Z" transform="translate(-539.4 -412)"/><path class="cls-2" d="M616.3,447.72c-0.74-.55-3.4-0.55-6-0.55a38.22,38.22,0,0,0-6,.3c-0.57.22-1.86,3.34-3.54,6.55-1.92,3.62-4.25,7.13-5.73,7.07-1.95,0-1.48-5.95-1.34-10.36,0-2.88-.44-3.81-0.85-4.06a16.34,16.34,0,0,0-3.81-1.4s-8.39-.63-9.57,3c1.62,0.22,4.36-.28,3.29,10.94-0.08.55-1.29,5.16-5.18-1.07-1-1.56-4.71-10.91-6-11-4.31-.08-8.58-0.27-10.06.55s1.86,7.24,7.37,15.85c4.47,7.07,9.21,12.56,17.44,13.93,1.56,0.17,5.57.33,6.86-.27,0.85-.41-0.22-6.5,2.71-7.1,1.29-.25,6.3,6.36,8.2,7.1a18.45,18.45,0,0,0,6.25.55c2.8-.08,6,0.28,6.28-1.64,0.69-4.2-8.47-9.68-8.72-12.26-0.22-1.86,3.35-5.29,5.15-7.92,2.25-3.18,4.72-7,3.32-8.23h0Z" transform="translate(-539.4 -412)"/></svg>