<svg id="_16" data-name="16" xmlns="http://www.w3.org/2000/svg" viewBox="0 0 99.04 99.06"><defs><style>.cls-1,.cls-2{fill:#262626;}.cls-2{fill-rule:evenodd;}</style></defs><title>youtube</title><path class="cls-1" d="M588.91,165.92a49.52,49.52,0,1,1-35,14.5,49.45,49.45,0,0,1,35-14.5h0Zm32.27,17.25a45.65,45.65,0,1,0,13.38,32.3,45.48,45.48,0,0,0-13.38-32.3h0Z" transform="translate(-539.4 -165.91)"/><path class="cls-2" d="M613.7,204.9s-0.52-3.65-2-5.24a7.24,7.24,0,0,0-5-2.25c-7.07-.52-17.68-0.52-17.68-0.52h-0.06s-10.58,0-17.66.52a7.21,7.21,0,0,0-5.07,2.25c-1.51,1.59-2,5.24-2,5.24a80.53,80.53,0,0,0-.52,8.5v4a79.19,79.19,0,0,0,.52,8.5s0.52,3.65,2,5.26c1.92,2.11,4.44,2,5.59,2.25,4,0.41,17.19.55,17.19,0.55s10.61-.05,17.68-0.55a7.12,7.12,0,0,0,5-2.25c1.51-1.62,2-5.26,2-5.26a83.81,83.81,0,0,0,.49-8.5v-4c0-4.22-.49-8.5-0.49-8.5h0Zm-16.34,10-13.68,7.37V207.45l6.2,3.37Z" transform="translate(-539.4 -165.91)"/></svg>