<?xml version="1.0" encoding="utf-8"?>
<!-- Generator: Adobe Illustrator 19.2.1, SVG Export Plug-In . SVG Version: 6.00 Build 0)  -->
<svg version="1.1" id="_16" xmlns="http://www.w3.org/2000/svg" xmlns:xlink="http://www.w3.org/1999/xlink" x="0px" y="0px"
	 viewBox="0 0 100 100" style="enable-background:new 0 0 100 100;" xml:space="preserve">
<style type="text/css">
	.st0{fill:#CBE0E4;}
</style>
<title>youtube</title>
<g>
	<path class="st0" d="M50,0C22.4,0,0,22.4,0,50c0,27.6,22.4,50,50,50s50-22.4,50-50C100,22.4,77.6,0,50,0z M75.2,48v4
		c0,2.8-0.2,5.7-0.5,8.5c0,0-0.5,3.7-2,5.3c-1.3,1.4-3.1,2.2-5,2.3C60.6,68.5,50,68.6,50,68.6S36.8,68.5,32.8,68
		c-1.2-0.3-3.7-0.2-5.6-2.3c-1.5-1.7-2-5.3-2-5.3c-0.3-2.8-0.5-5.7-0.5-8.5v-4c0-2.8,0.2-5.7,0.5-8.5c0,0,0.5-3.6,2-5.2
		c1.4-1.4,3.2-2.3,5.1-2.3c7.1-0.5,17.7-0.5,17.7-0.5h0.1c0,0,10.6,0,17.7,0.5c1.9,0.1,3.7,0.9,5,2.3c1.5,1.6,2,5.2,2,5.2
		S75.3,43.8,75.2,48z"/>
	<polygon class="st0" points="44.8,42 44.8,56.8 58.5,49.5 51,45.3 	"/>
</g>
</svg>
